<mxfile host="Electron" modified="2023-12-03T06:07:36.284Z" agent="Mozilla/5.0 (Windows NT 10.0; Win64; x64) AppleWebKit/537.36 (KHTML, like Gecko) draw.io/21.2.8 Chrome/112.0.5615.165 Electron/24.2.0 Safari/537.36" etag="WJo0uutmOEqHIQ_vI_In" version="21.2.8" type="device">
  <diagram name="Page-1" id="U2sgMt6IpICBFfTSHYp9">
    <mxGraphModel dx="1534" dy="662" grid="1" gridSize="10" guides="1" tooltips="1" connect="1" arrows="1" fold="1" page="1" pageScale="1" pageWidth="827" pageHeight="1169" math="0" shadow="0">
      <root>
        <mxCell id="0" />
        <mxCell id="1" parent="0" />
        <mxCell id="EbDrnNBO-KQdAKDroLI7-1" value="" style="rounded=1;whiteSpace=wrap;html=1;fillColor=#fff2cc;strokeColor=#080807;" vertex="1" parent="1">
          <mxGeometry x="-53" y="193" width="160" height="81" as="geometry" />
        </mxCell>
        <mxCell id="EbDrnNBO-KQdAKDroLI7-3" value="" style="rounded=1;whiteSpace=wrap;html=1;fillColor=#bac8d3;strokeColor=#191a1a;" vertex="1" parent="1">
          <mxGeometry x="308" y="179" width="250" height="110" as="geometry" />
        </mxCell>
        <mxCell id="EbDrnNBO-KQdAKDroLI7-4" value="&lt;font style=&quot;font-size: 14px;&quot; face=&quot;Verdana&quot;&gt;/hbase/meta-region-server&lt;/font&gt;" style="rounded=0;whiteSpace=wrap;html=1;fillColor=#f5f5f5;fontColor=#333333;strokeColor=#0d0c0c;" vertex="1" parent="1">
          <mxGeometry x="323" y="229" width="220" height="40" as="geometry" />
        </mxCell>
        <mxCell id="EbDrnNBO-KQdAKDroLI7-5" value="&lt;font face=&quot;Verdana&quot; size=&quot;1&quot; style=&quot;&quot;&gt;&lt;b style=&quot;font-size: 18px;&quot;&gt;zookeeper&lt;/b&gt;&lt;/font&gt;" style="text;html=1;align=center;verticalAlign=middle;resizable=0;points=[];autosize=1;strokeColor=none;fillColor=none;" vertex="1" parent="1">
          <mxGeometry x="368" y="184" width="130" height="40" as="geometry" />
        </mxCell>
        <mxCell id="EbDrnNBO-KQdAKDroLI7-8" value="&lt;font style=&quot;font-size: 14px;&quot;&gt;返回meta所在RegionServer&lt;/font&gt;" style="text;html=1;align=center;verticalAlign=middle;resizable=0;points=[];autosize=1;strokeColor=none;fillColor=none;" vertex="1" parent="1">
          <mxGeometry x="108" y="222" width="200" height="30" as="geometry" />
        </mxCell>
        <mxCell id="EbDrnNBO-KQdAKDroLI7-9" value="" style="rounded=1;whiteSpace=wrap;html=1;fillColor=#dae8fc;strokeColor=#000000;" vertex="1" parent="1">
          <mxGeometry x="340" y="370" width="180" height="80" as="geometry" />
        </mxCell>
        <mxCell id="EbDrnNBO-KQdAKDroLI7-10" value="&lt;b&gt;&lt;font face=&quot;Verdana&quot; style=&quot;font-size: 16px;&quot;&gt;RegionServer&lt;/font&gt;&lt;/b&gt;" style="text;html=1;align=center;verticalAlign=middle;resizable=0;points=[];autosize=1;strokeColor=none;fillColor=none;" vertex="1" parent="1">
          <mxGeometry x="360" y="370" width="140" height="30" as="geometry" />
        </mxCell>
        <mxCell id="EbDrnNBO-KQdAKDroLI7-11" value="&lt;font style=&quot;font-size: 14px;&quot; face=&quot;Verdana&quot;&gt;hbase:meta&lt;/font&gt;" style="rounded=0;whiteSpace=wrap;html=1;fillColor=#eeeeee;strokeColor=#000000;" vertex="1" parent="1">
          <mxGeometry x="370" y="406" width="120" height="30" as="geometry" />
        </mxCell>
        <mxCell id="EbDrnNBO-KQdAKDroLI7-12" value="&lt;b style=&quot;border-color: var(--border-color);&quot;&gt;&lt;font style=&quot;border-color: var(--border-color); font-size: 16px;&quot; face=&quot;Verdana&quot;&gt;Client&lt;/font&gt;&lt;/b&gt;" style="text;html=1;align=center;verticalAlign=middle;resizable=0;points=[];autosize=1;strokeColor=none;fillColor=none;" vertex="1" parent="1">
          <mxGeometry x="-13" y="197" width="80" height="30" as="geometry" />
        </mxCell>
        <mxCell id="EbDrnNBO-KQdAKDroLI7-13" value="&lt;font style=&quot;font-size: 14px;&quot; face=&quot;Verdana&quot;&gt;MetaCache&lt;br&gt;&lt;/font&gt;" style="rounded=0;whiteSpace=wrap;html=1;fillColor=#eeeeee;strokeColor=#000000;" vertex="1" parent="1">
          <mxGeometry x="-33" y="232" width="120" height="30" as="geometry" />
        </mxCell>
        <mxCell id="EbDrnNBO-KQdAKDroLI7-15" value="" style="endArrow=classic;html=1;rounded=0;" edge="1" parent="1">
          <mxGeometry width="50" height="50" relative="1" as="geometry">
            <mxPoint x="110" y="220" as="sourcePoint" />
            <mxPoint x="310" y="220" as="targetPoint" />
          </mxGeometry>
        </mxCell>
        <mxCell id="EbDrnNBO-KQdAKDroLI7-17" value="" style="endArrow=none;html=1;rounded=0;startArrow=classic;startFill=1;endFill=0;" edge="1" parent="1">
          <mxGeometry width="50" height="50" relative="1" as="geometry">
            <mxPoint x="110" y="251" as="sourcePoint" />
            <mxPoint x="310" y="251" as="targetPoint" />
          </mxGeometry>
        </mxCell>
        <mxCell id="EbDrnNBO-KQdAKDroLI7-18" value="" style="endArrow=classic;html=1;rounded=0;exitX=1.025;exitY=0.875;exitDx=0;exitDy=0;entryX=-0.003;entryY=0.112;entryDx=0;entryDy=0;entryPerimeter=0;exitPerimeter=0;" edge="1" parent="1" source="EbDrnNBO-KQdAKDroLI7-1" target="EbDrnNBO-KQdAKDroLI7-9">
          <mxGeometry width="50" height="50" relative="1" as="geometry">
            <mxPoint x="90" y="490" as="sourcePoint" />
            <mxPoint x="190" y="370" as="targetPoint" />
          </mxGeometry>
        </mxCell>
        <mxCell id="EbDrnNBO-KQdAKDroLI7-19" value="" style="endArrow=classic;html=1;rounded=0;exitX=0;exitY=0.5;exitDx=0;exitDy=0;" edge="1" parent="1" source="EbDrnNBO-KQdAKDroLI7-9">
          <mxGeometry width="50" height="50" relative="1" as="geometry">
            <mxPoint x="160" y="270" as="sourcePoint" />
            <mxPoint x="80" y="280" as="targetPoint" />
          </mxGeometry>
        </mxCell>
        <mxCell id="EbDrnNBO-KQdAKDroLI7-20" value="" style="rounded=1;whiteSpace=wrap;html=1;fillColor=#dae8fc;strokeColor=#000000;" vertex="1" parent="1">
          <mxGeometry x="-61" y="380" width="180" height="80" as="geometry" />
        </mxCell>
        <mxCell id="EbDrnNBO-KQdAKDroLI7-21" value="&lt;b&gt;&lt;font face=&quot;Verdana&quot; style=&quot;font-size: 16px;&quot;&gt;RegionServer&lt;/font&gt;&lt;/b&gt;" style="text;html=1;align=center;verticalAlign=middle;resizable=0;points=[];autosize=1;strokeColor=none;fillColor=none;" vertex="1" parent="1">
          <mxGeometry x="-41" y="380" width="140" height="30" as="geometry" />
        </mxCell>
        <mxCell id="EbDrnNBO-KQdAKDroLI7-22" value="&lt;font style=&quot;font-size: 14px;&quot; face=&quot;Verdana&quot;&gt;Region&lt;/font&gt;" style="rounded=0;whiteSpace=wrap;html=1;fillColor=#eeeeee;strokeColor=#000000;" vertex="1" parent="1">
          <mxGeometry x="-31" y="416" width="120" height="30" as="geometry" />
        </mxCell>
        <mxCell id="EbDrnNBO-KQdAKDroLI7-23" value="" style="endArrow=classic;html=1;rounded=0;exitX=0.391;exitY=1.007;exitDx=0;exitDy=0;exitPerimeter=0;entryX=0.36;entryY=0.016;entryDx=0;entryDy=0;entryPerimeter=0;" edge="1" parent="1" source="EbDrnNBO-KQdAKDroLI7-1" target="EbDrnNBO-KQdAKDroLI7-21">
          <mxGeometry width="50" height="50" relative="1" as="geometry">
            <mxPoint x="250" y="270" as="sourcePoint" />
            <mxPoint x="300" y="220" as="targetPoint" />
          </mxGeometry>
        </mxCell>
        <mxCell id="EbDrnNBO-KQdAKDroLI7-25" value="" style="endArrow=none;html=1;rounded=0;entryX=0.36;entryY=0.016;entryDx=0;entryDy=0;entryPerimeter=0;startArrow=classic;startFill=1;endFill=0;" edge="1" parent="1">
          <mxGeometry width="50" height="50" relative="1" as="geometry">
            <mxPoint x="39" y="273" as="sourcePoint" />
            <mxPoint x="39" y="380" as="targetPoint" />
          </mxGeometry>
        </mxCell>
        <mxCell id="EbDrnNBO-KQdAKDroLI7-26" value="&lt;font style=&quot;font-size: 14px;&quot;&gt;返回rk对应的Region信息&lt;/font&gt;" style="text;html=1;align=center;verticalAlign=middle;resizable=0;points=[];autosize=1;strokeColor=none;fillColor=none;rotation=26;" vertex="1" parent="1">
          <mxGeometry x="101" y="342" width="180" height="30" as="geometry" />
        </mxCell>
      </root>
    </mxGraphModel>
  </diagram>
</mxfile>
